<?xml version="1.0" standalone="no"?>
<!DOCTYPE svg PUBLIC "-//W3C//DTD SVG 20010904//EN"
 "http://www.w3.org/TR/2001/REC-SVG-20010904/DTD/svg10.dtd">
<svg version="1.0" xmlns="http://www.w3.org/2000/svg"
 width="2402.000000pt" height="1742.000000pt" viewBox="0 0 2402.000000 1742.000000"
 preserveAspectRatio="xMidYMid meet">

<g transform="translate(0.000000,1742.000000) scale(0.100000,-0.100000)"
fill="#000000" stroke="none">
<path d="M7254 17409 c-23 -4 -79 -26 -125 -50 -521 -261 -883 -805 -917
-1380 -26 -434 90 -814 353 -1161 l36 -47 -43 -11 c-430 -109 -828 -386 -1077
-750 -96 -141 -106 -163 -104 -253 1 -68 -1 -77 -16 -73 -9 3 -68 21 -132 40
-139 42 -368 89 -544 113 -184 25 -714 25 -900 0 -475 -63 -807 -163 -1199
-359 -527 -264 -998 -654 -1316 -1093 -34 -47 -64 -85 -66 -85 -2 0 -26 14
-53 30 -84 52 -251 126 -371 165 -202 65 -505 115 -605 100 -60 -9 -122 -56
-147 -113 -24 -53 -22 -107 13 -457 154 -1543 655 -3054 1559 -4705 214 -391
710 -1236 959 -1636 l32 -51 -45 -174 c-139 -537 -176 -685 -176 -713 1 -45
32 -107 73 -143 74 -65 435 -184 745 -247 89 -18 167 -37 172 -42 13 -13 160
-293 160 -304 0 -6 -589 -11 -1568 -12 l-1568 -3 -42 -27 c-22 -15 -54 -49
-69 -75 -23 -40 -28 -59 -28 -118 0 -86 29 -144 93 -190 l44 -30 4792 -5 4793
-5 52 -60 c125 -143 304 -273 496 -360 l94 -42 58 55 c113 106 270 198 429
251 l86 29 -38 25 c-87 55 -126 123 -125 218 0 89 26 135 143 255 l103 106
116 -119 c124 -127 139 -155 139 -249 0 -53 -28 -125 -62 -161 l-21 -22 154 6
c259 10 516 -30 683 -106 38 -17 76 -31 86 -31 9 0 62 46 116 103 l99 102
4790 5 4790 5 38 24 c144 89 134 321 -16 396 l-51 25 -1018 0 c-806 0 -1020 3
-1023 12 -8 23 -54 469 -70 668 -33 421 -44 958 -26 1293 l6 118 115 45 c132
52 310 137 389 187 67 43 101 95 101 157 0 35 -46 164 -205 573 l-205 527 50
198 c91 361 208 719 333 1015 l53 128 125 68 c840 457 1363 1046 1504 1691 26
119 31 367 10 491 -82 494 -426 853 -915 955 -94 20 -323 25 -446 11 l-71 -9
-6 172 -7 172 42 81 c121 231 303 394 478 427 155 30 317 -63 445 -255 69
-104 100 -168 235 -480 137 -319 222 -488 314 -625 79 -118 199 -248 296 -322
141 -107 348 -184 520 -195 611 -35 1007 749 808 1602 -122 527 -455 991 -938
1312 -266 176 -595 316 -896 380 -117 25 -148 27 -344 27 -232 0 -311 -11
-487 -69 -115 -38 -304 -135 -413 -212 -113 -81 -331 -296 -415 -410 -33 -45
-62 -82 -65 -82 -3 0 -36 44 -75 97 -38 53 -128 156 -200 228 -363 365 -807
584 -1335 655 -121 16 -417 17 -540 1 -323 -43 -623 -145 -893 -305 -37 -22
-70 -37 -73 -35 -3 3 -18 55 -34 114 -134 510 -420 885 -834 1094 l-108 54 9
70 c4 39 8 157 7 261 -1 210 -17 315 -76 495 -139 428 -462 799 -861 991 -69
33 -96 40 -142 40 -78 0 -140 -32 -182 -94 -50 -74 -52 -116 -9 -254 19 -65
41 -147 48 -183 18 -98 15 -338 -5 -443 -78 -394 -331 -718 -693 -889 -45 -21
-86 -38 -91 -38 -5 0 -24 37 -42 83 -56 136 -150 315 -182 341 -40 34 -260
153 -394 214 -587 265 -1268 437 -2000 503 -156 15 -590 18 -762 6 -641 -43
-1326 -196 -1877 -419 -271 -110 -537 -244 -611 -309 -34 -30 -138 -229 -186
-356 -13 -35 -29 -63 -36 -63 -28 0 -236 115 -314 174 -240 181 -410 457 -470
761 -21 104 -18 368 5 474 10 46 25 102 33 125 8 23 20 64 28 92 42 159 -89
301 -251 273z m-274 -877 c35 -411 199 -762 494 -1058 145 -144 227 -203 371
-267 53 -24 111 -55 129 -69 65 -52 69 -139 20 -407 -28 -153 -33 -173 -42
-169 -4 2 -52 26 -107 54 -88 45 -272 121 -315 129 -8 2 -42 10 -75 18 -63 17
-89 22 -164 33 -90 13 -271 163 -394 327 -283 376 -320 918 -91 1334 46 84
158 232 161 213 1 -8 7 -71 13 -138z m8699 5 c72 -107 131 -238 167 -372 24
-89 27 -119 28 -270 1 -199 -4 -249 -39 -369 -50 -172 -120 -309 -226 -440
-118 -148 -287 -280 -369 -290 -174 -22 -431 -109 -597 -202 -55 -30 -62 -32
-67 -17 -22 73 -66 292 -66 327 0 126 58 210 206 298 450 267 750 703 828
1204 14 89 25 205 26 259 0 17 3 16 25 -10 14 -16 52 -70 84 -118z m-4084
-323 c237 -20 718 -85 788 -107 4 -1 9 -85 11 -187 4 -206 19 -294 79 -461
l34 -96 -44 -23 c-87 -46 -158 -158 -189 -298 -13 -56 -15 -105 -12 -201 4
-108 10 -140 38 -225 110 -327 369 -465 555 -295 89 82 139 204 152 368 l6 79
37 -23 c136 -86 340 -163 505 -190 128 -22 331 -22 459 -1 54 9 101 15 103 12
21 -21 181 -956 164 -956 -4 0 -74 23 -156 50 -690 232 -1436 368 -2300 420
-147 9 -1111 5 -1205 -5 -30 -3 -138 -13 -240 -21 -337 -28 -730 -84 -1049
-149 -68 -14 -125 -25 -127 -25 -2 0 -4 51 -4 113 0 143 -23 238 -87 367 -39
79 -63 111 -138 186 -129 130 -263 202 -422 226 -43 6 -79 12 -80 13 -2 1 13
58 32 128 64 235 158 493 229 636 l35 68 153 76 c487 242 1059 406 1688 486
149 19 193 23 415 41 104 8 449 5 570 -6z m4700 -1062 c263 -148 465 -397 574
-705 32 -91 71 -234 71 -260 0 -8 -37 24 -82 70 -206 212 -450 366 -732 462
-65 23 -126 41 -135 41 -41 1 -45 17 -14 57 54 68 140 206 184 295 47 96 39
94 134 40z m-9015 -812 c130 -24 249 -64 360 -120 89 -45 230 -135 230 -148 0
-4 -11 -77 -24 -162 -14 -85 -34 -231 -46 -325 -12 -93 -24 -173 -26 -177 -10
-16 -217 -119 -297 -147 -164 -57 -272 -75 -467 -75 -142 0 -194 4 -277 22
-249 54 -464 160 -654 323 -65 57 -190 193 -210 231 -7 13 5 34 51 91 316 394
846 583 1360 487z m8489 4 c356 -60 670 -250 884 -534 l26 -36 -46 -59 c-152
-196 -396 -370 -636 -454 -157 -55 -281 -75 -467 -75 -256 -1 -429 41 -649
154 -53 28 -102 54 -109 58 -7 5 -20 72 -32 173 -11 90 -32 238 -46 327 -14
90 -23 170 -20 178 7 19 124 93 232 147 259 129 560 172 863 121z m2936 -59
c44 -3 133 -17 197 -30 644 -131 1173 -583 1415 -1210 105 -270 151 -510 159
-830 l5 -200 -98 -47 c-233 -112 -294 -182 -263 -297 32 -120 155 -165 271
-101 208 116 335 167 501 200 116 24 289 29 385 11 309 -58 543 -275 628 -586
26 -96 31 -283 11 -405 -59 -352 -281 -706 -636 -1015 -104 -91 -322 -256
-328 -250 -6 6 115 188 192 289 38 49 73 105 78 124 31 113 -73 234 -189 218
-70 -9 -99 -33 -188 -151 -469 -622 -864 -1614 -1056 -2645 -11 -63 -24 -118
-28 -122 -13 -15 -382 -78 -541 -93 -36 -4 -75 -8 -88 -10 -166 -26 -1083 -26
-1165 0 -7 2 -46 6 -87 10 -83 7 -102 9 -245 31 -593 90 -1411 407 -2004 777
-237 148 -274 176 -267 203 44 173 122 609 151 834 26 203 32 264 40 385 3 50
8 114 11 143 3 30 7 176 9 325 l4 272 59 175 c67 199 142 401 152 413 3 4 19
-15 34 -43 48 -89 166 -263 241 -355 68 -84 74 -95 80 -150 29 -270 132 -576
273 -812 193 -325 516 -629 842 -793 288 -144 543 -199 877 -187 422 14 894
198 1229 480 172 144 352 358 446 529 l43 78 120 66 c468 260 819 619 1036
1059 l68 139 20 -44 c11 -25 25 -67 32 -95 17 -74 32 -84 57 -43 37 59 54 153
50 263 -5 119 -30 186 -88 239 -53 48 -97 60 -200 54 -130 -8 -235 -61 -276
-141 -8 -15 -12 -32 -9 -37 3 -6 39 -10 78 -10 72 0 183 -22 201 -40 11 -11
-26 -73 -136 -227 -356 -496 -777 -809 -1179 -873 -75 -12 -300 -9 -364 4
-187 41 -350 116 -525 245 -88 64 -269 238 -345 332 l-54 65 36 197 37 196 45
7 c25 4 55 8 66 10 11 2 36 7 55 10 66 11 206 53 278 83 265 107 465 301 542
527 30 87 26 101 -50 152 -254 171 -722 321 -1210 387 -244 33 -591 30 -738
-7 -55 -14 -63 -33 -64 -158 0 -334 215 -656 591 -885 34 -20 61 -43 61 -51 0
-14 -79 -377 -83 -379 -108 -63 -269 -133 -397 -175 -150 -48 -281 -71 -425
-75 -340 -9 -618 109 -855 363 -89 95 -193 243 -255 364 l-39 76 61 129 c112
233 146 375 145 598 -3 304 -120 597 -351 875 -39 46 -69 86 -67 88 2 2 19 6
38 8 63 9 193 34 226 43 29 9 39 5 110 -42 99 -66 255 -217 343 -332 91 -120
142 -148 228 -125 80 21 133 88 134 171 0 60 -34 118 -148 256 l-82 98 29 70
c97 230 124 274 237 390 59 61 130 140 159 176 71 91 162 238 162 262 0 30 98
120 252 229 272 195 637 327 952 345 56 3 102 7 104 8 4 3 149 -3 237 -10z
m3374 -245 c268 -55 568 -189 821 -368 123 -86 354 -318 443 -442 77 -109 193
-338 231 -455 76 -240 101 -463 76 -670 -52 -429 -267 -694 -526 -646 -94 17
-165 46 -248 102 -189 126 -327 340 -533 823 -110 259 -170 385 -221 469 -22
37 -38 67 -34 67 19 0 315 -190 446 -287 77 -57 90 -45 43 39 -107 191 -309
415 -470 522 -287 191 -594 231 -910 121 -150 -53 -317 -162 -421 -276 -30
-33 -56 -56 -59 -52 -2 4 -15 40 -27 78 -13 39 -38 108 -57 153 l-33 84 36 60
c149 244 382 467 609 580 117 59 203 85 405 122 63 12 329 -3 429 -24z
m-10239 -410 c91 -6 191 -12 223 -15 140 -12 184 -16 217 -20 19 -2 80 -9 135
-15 1077 -120 2104 -464 2693 -904 285 -213 464 -435 546 -676 122 -362 -36
-745 -449 -1085 -635 -523 -1774 -895 -3090 -1010 -278 -24 -466 -30 -900 -29
-387 0 -584 9 -900 40 -1397 135 -2591 572 -3146 1150 -359 375 -421 768 -182
1153 388 622 1523 1138 2938 1335 99 14 227 30 285 36 58 5 123 12 145 15 22
2 83 7 135 10 52 4 106 9 120 11 14 2 124 7 245 10 121 4 222 8 224 10 8 7
594 -6 761 -16z m-7062 -210 c536 -97 985 -307 1379 -647 34 -29 77 -60 97
-68 78 -33 177 -8 232 58 l29 35 80 -18 c44 -10 97 -21 117 -24 31 -6 39 -12
48 -41 11 -32 9 -36 -36 -92 -201 -246 -318 -540 -328 -821 -8 -232 33 -390
178 -692 253 -524 470 -1181 626 -1904 l40 -181 -143 -139 c-344 -338 -637
-631 -637 -638 0 -14 27 -10 455 76 416 83 420 83 427 62 14 -42 39 -279 30
-285 -39 -26 -442 -366 -442 -373 0 -5 6 -10 13 -13 10 -3 286 -21 426 -27 33
-2 45 -7 51 -23 4 -11 11 -86 15 -165 4 -80 9 -152 10 -161 2 -8 6 -110 10
-226 l8 -210 -134 -100 c-958 -718 -2036 -1112 -3234 -1182 -280 -17 -915 7
-1030 38 -24 6 -47 37 -132 176 -99 161 -103 169 -86 186 10 9 162 137 338
284 176 147 321 274 323 281 2 8 -5 14 -15 15 -10 0 -25 2 -33 4 -9 1 -103 6
-210 10 -107 4 -202 9 -210 10 -8 2 -105 7 -215 11 -110 4 -203 9 -207 10 -5
1 -46 2 -92 3 -77 1 -85 3 -100 25 -8 14 -17 30 -18 37 -2 6 240 127 581 288
322 152 586 281 588 288 5 15 19 13 -637 103 -873 119 -1000 137 -1004 141
-12 15 -269 513 -357 694 -461 949 -776 1844 -974 2768 -65 308 -143 809 -171
1105 -8 86 -13 84 129 47 113 -29 224 -72 327 -126 123 -65 118 -54 72 -146
-49 -96 -119 -275 -162 -408 -36 -115 -90 -333 -90 -367 0 -110 93 -200 205
-200 89 0 166 59 189 147 7 27 28 106 46 175 84 322 250 673 443 933 114 153
202 252 379 425 l64 62 314 -255 c173 -140 323 -255 333 -255 9 0 17 5 17 12
0 17 121 812 124 815 1 1 181 -229 401 -512 219 -283 405 -515 412 -515 8 0
15 6 18 13 2 6 6 174 9 372 9 538 18 919 22 924 2 3 135 -126 294 -285 160
-159 298 -289 307 -289 13 0 36 79 117 394 l101 393 80 -6 c44 -3 131 -15 193
-26z m10368 -3191 c-277 -894 -437 -1831 -502 -2937 l-6 -113 -212 -104 c-236
-116 -388 -179 -628 -261 -631 -215 -1327 -341 -2118 -383 -203 -11 -795 -6
-985 8 -540 40 -981 108 -1420 217 -450 113 -802 240 -1177 426 l-196 97 -6
63 c-3 35 -10 149 -16 253 -52 891 -220 1847 -471 2674 -28 90 -48 165 -45
168 2 3 51 -23 108 -57 137 -82 452 -237 608 -299 l125 -50 85 -148 c171 -296
350 -555 515 -745 62 -72 71 -78 148 -106 516 -186 1184 -300 1997 -342 155
-8 644 -5 727 5 21 2 88 7 148 10 61 3 198 15 305 26 526 53 993 146 1368 271
146 49 156 54 203 103 153 159 382 486 553 790 37 66 73 125 79 131 7 6 66 32
132 58 151 60 490 228 615 304 52 32 96 57 98 56 2 -1 -13 -53 -32 -115z
m2166 -867 c35 -16 122 -67 193 -112 72 -46 176 -111 231 -145 l101 -62 64 8
c35 4 147 22 249 40 134 24 217 33 301 33 112 1 117 0 153 -27 47 -36 95 -102
143 -195 43 -85 48 -77 -77 -123 -213 -77 -399 -110 -630 -111 -233 0 -341 22
-550 115 -206 91 -416 233 -554 376 -50 50 -50 50 -30 72 27 30 121 101 169
128 89 49 140 49 237 3z m-7010 -116 c447 -73 612 -95 793 -105 298 -17 494 1
1114 100 355 57 362 57 458 -7 53 -34 122 -113 162 -184 l21 -38 -62 -11 c-99
-16 -319 -39 -488 -51 -85 -6 -177 -12 -205 -15 -73 -7 -599 -19 -820 -19
-222 0 -776 12 -820 18 -16 3 -79 7 -140 11 -141 7 -299 21 -450 40 -144 18
-175 24 -175 34 0 13 80 124 118 164 58 60 138 102 204 106 9 1 139 -19 290
-43z m5010 -1510 c292 -191 534 -323 865 -470 431 -191 924 -353 1268 -416
167 -31 412 -61 600 -74 39 -3 107 -8 152 -12 175 -13 691 -6 863 11 25 2 74
7 110 10 73 7 99 10 220 25 126 17 147 20 240 36 179 33 356 76 388 96 18 11
34 19 36 17 13 -16 153 -396 148 -401 -13 -13 -210 -97 -337 -143 -257 -93
-570 -166 -860 -200 -27 -3 -59 -8 -70 -10 -11 -2 -65 -7 -120 -11 -55 -3
-116 -8 -135 -10 -46 -5 -554 -5 -600 0 -19 2 -82 7 -140 11 -58 4 -112 8
-120 10 -8 1 -46 6 -83 10 -37 3 -76 8 -86 10 -10 2 -42 6 -72 10 -306 37
-768 156 -1134 292 -464 172 -934 430 -1273 698 l-83 66 6 82 c3 45 7 107 10
137 2 30 7 98 11 150 4 52 8 102 10 110 1 8 3 30 3 48 1 17 3 32 6 32 2 0 82
-51 177 -114z m-83 -985 c394 -266 951 -526 1436 -671 61 -18 116 -36 123 -40
9 -4 -103 -84 -310 -221 -216 -143 -330 -225 -345 -247 -30 -45 -37 -100 -20
-148 7 -21 163 -265 347 -541 304 -459 336 -504 375 -523 49 -24 115 -26 155
-5 46 24 982 644 1008 668 55 51 71 141 37 207 -10 19 -108 169 -217 333 -110
164 -197 301 -195 303 4 5 169 -10 252 -21 169 -24 801 -23 995 0 19 2 78 9
130 15 187 22 488 77 598 109 17 5 32 7 32 3 -3 -78 10 -1014 13 -1032 3 -14
8 -81 12 -150 4 -69 8 -138 10 -155 2 -16 7 -66 10 -110 7 -87 6 -81 35 -338
11 -98 20 -180 20 -182 0 -3 -990 -5 -2199 -5 l-2199 0 -5 23 c-41 163 -156
964 -182 1267 -3 36 -8 79 -10 95 -2 17 -7 73 -10 125 -4 52 -8 105 -10 117
-2 12 -6 84 -10 160 -4 76 -9 149 -11 163 -3 14 -8 222 -11 464 -5 378 -4 437
8 430 8 -5 70 -47 138 -93z m-7109 -174 c542 -242 1246 -431 1948 -523 17 -2
47 -6 65 -8 17 -3 59 -7 92 -11 33 -3 74 -7 90 -10 17 -2 66 -7 110 -10 44 -3
94 -8 110 -10 17 -2 86 -7 155 -10 69 -3 145 -8 169 -11 58 -7 775 -7 821 0
19 3 97 8 173 11 76 4 148 8 160 10 12 2 58 6 102 10 105 8 131 11 320 35 737
94 1433 280 2004 536 91 41 171 78 178 80 9 4 11 -37 10 -167 l-2 -173 -185
-68 c-393 -144 -935 -321 -1205 -393 -117 -31 -210 -56 -277 -74 -161 -43
-499 -113 -678 -142 -36 -5 -76 -12 -90 -14 -59 -10 -261 -34 -330 -40 -41 -4
-81 -8 -87 -10 -23 -7 -344 -20 -508 -20 -159 1 -447 11 -495 19 -14 2 -61 7
-105 11 -44 4 -87 8 -95 10 -8 1 -42 6 -75 9 -89 11 -345 52 -460 75 -329 65
-516 113 -1085 279 -80 23 -688 230 -877 298 l-163 59 0 173 0 172 33 -14 c17
-8 97 -44 177 -79z m-664 -344 c-9 -234 -18 -425 -22 -443 -1 -8 -3 -35 -3
-60 l-1 -46 -82 -54 c-334 -218 -760 -434 -1148 -580 -291 -110 -753 -246
-936 -274 -21 -4 -55 -11 -74 -16 -19 -5 -48 -11 -65 -13 -16 -3 -61 -10 -100
-17 -108 -17 -117 -18 -165 -25 -296 -39 -514 -53 -789 -49 -187 2 -288 7
-381 19 -19 2 -60 7 -90 10 -102 11 -294 45 -420 74 -129 30 -349 97 -363 111
-7 6 87 407 98 419 3 2 22 -3 43 -12 21 -9 77 -19 123 -23 46 -3 86 -8 89 -9
3 -2 57 -6 120 -10 63 -4 126 -9 140 -11 30 -5 631 -5 680 0 19 2 85 7 145 11
61 4 119 9 130 10 11 2 47 6 80 10 129 13 156 17 332 46 828 135 1629 438
2347 889 78 49 179 116 226 149 47 33 87 60 89 61 2 0 1 -75 -3 -167z m7199
-473 c40 -571 109 -1154 191 -1610 13 -74 24 -138 24 -142 0 -5 -475 -8 -1055
-8 -713 0 -1055 3 -1055 10 0 9 -203 314 -667 1004 -52 76 -92 140 -91 141 2
1 89 14 193 29 341 48 779 143 1167 251 326 92 906 281 1203 393 44 16 81 29
81 28 1 0 5 -44 9 -96z m2541 91 c-3 -5 1 -11 9 -15 8 -3 15 -12 15 -21 0 -8
4 -15 8 -15 5 0 15 -12 23 -27 7 -16 24 -42 37 -60 13 -18 21 -37 17 -43 -4
-6 -1 -9 5 -8 7 2 17 -6 23 -17 7 -11 15 -22 18 -25 3 -3 12 -16 19 -29 7 -14
17 -30 21 -35 19 -23 138 -206 133 -206 -2 0 6 -11 17 -24 12 -13 20 -27 19
-31 -1 -4 2 -11 7 -14 5 -3 22 -23 37 -43 l28 -38 -333 -219 -333 -220 -218
331 c-121 182 -217 332 -216 334 23 22 162 103 170 98 6 -4 8 -3 5 3 -6 10 93
83 112 83 5 0 11 4 13 9 5 15 148 102 157 97 5 -3 7 -19 6 -36 -1 -16 1 -28 5
-25 9 5 7 46 -3 61 -7 12 1 24 15 24 5 0 7 -4 3 -9 -3 -5 -1 -12 4 -16 6 -3 8
3 6 14 -3 15 7 27 33 43 20 12 46 30 56 40 34 31 42 22 41 -42 -1 -43 3 -64
14 -73 12 -10 13 -9 6 3 -12 19 -14 151 -3 144 4 -3 8 0 8 5 0 6 5 11 11 11 5
0 8 -4 5 -9z m-9105 -67 c508 -182 1019 -338 1434 -439 342 -84 522 -118 968
-183 l48 -7 -131 -193 c-384 -570 -619 -923 -625 -942 -6 -20 -7 -20 -1061
-20 -836 0 -1054 3 -1054 13 0 6 11 75 25 152 66 368 131 884 165 1302 29 369
31 383 39 383 4 0 90 -30 192 -66z m-711 -624 c0 -66 -97 -740 -145 -1005 -14
-77 -25 -143 -25 -147 0 -5 -728 -8 -1618 -8 l-1617 0 -63 125 c-34 69 -62
129 -62 133 0 4 141 6 312 6 319 -1 448 5 678 32 724 86 1422 295 2080 623
160 80 412 220 435 242 12 12 25 12 25 -1z m4100 -50 c4 0 30 -37 60 -82 30
-46 59 -86 65 -90 6 -5 6 -8 0 -8 -5 0 -2 -5 8 -11 9 -5 17 -14 17 -20 0 -5 5
-15 10 -22 46 -55 443 -647 438 -653 -2 -2 -26 4 -53 12 -83 25 -213 52 -340
70 -132 19 -575 26 -740 11 -109 -10 -325 -49 -420 -77 -38 -11 -71 -20 -73
-20 -2 0 84 128 190 284 275 405 277 409 296 431 10 11 19 25 20 30 2 6 13 21
24 35 12 14 22 27 22 30 -2 10 45 78 55 81 8 3 384 2 421 -1z"/>
<path d="M9865 15358 c-203 -77 -348 -366 -332 -662 11 -214 99 -376 234 -433
53 -22 154 -14 217 17 79 38 160 128 211 234 59 122 75 189 82 331 5 102 2
133 -16 205 -35 140 -89 227 -174 282 -41 26 -60 32 -120 34 -40 2 -85 -1
-102 -8z"/>
<path d="M17865 13576 c-236 -67 -462 -277 -590 -549 -60 -126 -79 -203 -79
-317 -1 -125 20 -187 84 -250 116 -116 307 -104 511 32 268 179 460 501 461
773 0 146 -50 243 -152 295 -55 28 -166 35 -235 16z"/>
<path d="M19274 13279 c-137 -67 -217 -243 -216 -479 0 -278 99 -545 267 -715
88 -90 161 -128 257 -133 58 -4 76 0 123 22 128 63 200 213 212 441 11 236
-66 496 -201 675 -66 88 -118 134 -200 175 -58 30 -79 35 -135 35 -46 0 -78
-6 -107 -21z"/>
<path d="M17193 11255 c-43 -19 -73 -69 -73 -124 0 -37 6 -49 39 -82 33 -33
45 -39 82 -39 77 0 139 59 139 132 0 37 -34 90 -71 110 -40 21 -72 22 -116 3z"/>
<path d="M16599 11233 c-58 -35 -80 -124 -45 -177 36 -56 109 -81 159 -55 70
36 98 102 71 168 -29 72 -121 104 -185 64z"/>
<path d="M19134 10851 c-32 -20 -64 -74 -64 -111 0 -37 30 -89 65 -110 109
-68 241 54 182 170 -32 62 -122 88 -183 51z"/>
<path d="M16992 10730 c-34 -21 -62 -71 -62 -111 0 -44 41 -98 88 -116 39 -15
49 -15 85 -2 102 35 118 178 27 233 -38 22 -98 20 -138 -4z"/>
<path d="M19680 10613 c-51 -26 -83 -79 -77 -126 10 -72 58 -118 125 -119 74
-1 132 54 132 127 0 97 -97 160 -180 118z"/>
<path d="M19096 10299 c-78 -62 -70 -166 16 -219 40 -24 69 -25 115 -3 91 43
98 176 13 227 -40 23 -111 21 -144 -5z"/>
<path d="M16335 8689 c-19 -29 121 -302 225 -441 299 -398 778 -639 1295 -653
431 -12 843 147 1152 444 114 109 107 115 -79 68 -231 -59 -388 -88 -578 -106
-136 -14 -465 -6 -595 14 -453 69 -883 269 -1312 612 -50 40 -94 73 -97 73 -3
0 -8 -5 -11 -11z"/>
<path d="M8512 12962 c58 -35 228 -159 228 -167 0 -2 -16 -36 -35 -76 -77
-163 -95 -325 -50 -445 65 -174 197 -311 352 -366 116 -41 299 -34 409 16 157
72 228 240 179 425 -94 361 -515 625 -1030 648 l-120 5 67 -40z"/>
<path d="M13880 12993 c-82 -9 -211 -37 -300 -65 -312 -99 -540 -295 -623
-536 -26 -76 -29 -95 -25 -176 3 -73 10 -101 30 -141 70 -135 218 -203 418
-192 215 12 374 123 478 337 46 94 47 96 47 195 0 109 -20 191 -77 315 l-29
65 38 33 c31 27 125 92 229 159 16 10 3 12 -66 11 -47 -1 -101 -3 -120 -5z"/>
<path d="M9454 12889 c357 -375 410 -661 185 -992 -46 -67 -39 -68 49 -8 80
55 155 129 201 201 129 199 91 391 -120 614 -91 96 -195 179 -289 229 -119 64
-123 58 -26 -44z"/>
<path d="M13073 12941 c-207 -109 -406 -316 -474 -489 -31 -78 -31 -195 0
-272 31 -75 99 -168 168 -227 60 -52 154 -116 160 -109 2 2 -17 37 -43 77
-157 243 -161 455 -14 699 48 80 130 183 213 270 101 104 100 109 -10 51z"/>
<path d="M4915 12276 c-63 -20 -99 -42 -139 -87 -153 -168 -150 -493 5 -756
51 -87 153 -184 234 -224 95 -47 189 -52 267 -16 136 63 212 211 211 412 0
198 -76 393 -209 535 -107 115 -257 170 -369 136z"/>
<path d="M2429 11455 c-114 -37 -206 -169 -230 -331 -46 -308 151 -677 403
-756 113 -35 204 -17 286 57 92 83 136 201 136 365 -1 132 -21 214 -84 346
-116 241 -333 376 -511 319z"/>
<path d="M4015 10821 c-396 -132 -728 -245 -738 -251 -17 -10 -16 -13 11 -48
167 -209 418 -362 687 -417 l110 -22 29 -74 c70 -183 112 -408 103 -558 -9
-156 -54 -253 -178 -385 -160 -172 -352 -258 -574 -259 -203 -1 -370 67 -512
209 -130 129 -205 264 -239 428 -22 100 -19 298 5 411 27 132 15 139 -55 33
-59 -90 -127 -233 -149 -313 -26 -95 -31 -265 -11 -366 35 -171 109 -303 250
-445 137 -136 288 -222 486 -276 73 -20 107 -23 250 -22 149 0 173 3 253 27
336 103 577 362 708 762 17 49 32 96 34 103 3 9 22 0 58 -26 349 -258 705
-340 1027 -235 332 108 591 412 672 788 18 85 15 294 -5 377 -47 191 -167 366
-330 482 -100 71 -329 168 -350 147 -5 -5 31 -47 87 -101 173 -168 265 -333
296 -534 36 -230 -72 -501 -259 -650 -90 -71 -143 -100 -253 -137 -180 -61
-430 -47 -587 33 -152 77 -313 304 -421 590 l-32 86 71 82 c190 220 291 463
303 725 2 56 0 70 -12 72 -8 2 -339 -105 -735 -236z"/>
<path d="M5655 8854 c-148 -103 -508 -304 -660 -369 -286 -121 -640 -195
-1060 -220 -172 -10 -180 -18 -80 -84 636 -418 1587 -109 1846 599 28 77 31
111 12 109 -4 0 -30 -16 -58 -35z"/>
<path d="M9180 8236 c14 -15 54 -47 90 -71 304 -201 818 -332 1520 -386 201
-16 761 -16 960 0 582 46 1033 143 1347 291 99 47 233 132 268 170 16 18 15
18 -22 9 -450 -109 -957 -191 -1318 -214 -55 -4 -106 -8 -113 -10 -26 -9 -398
-20 -647 -20 -245 0 -555 10 -655 20 -25 3 -99 10 -165 15 -312 27 -731 92
-1065 166 -112 25 -209 48 -215 51 -5 4 1 -6 15 -21z"/>
<path d="M17065 5761 c-3 -5 -2 -12 3 -15 5 -3 9 1 9 9 0 17 -3 19 -12 6z"/>
<path d="M17043 5735 c0 -8 4 -12 9 -9 5 3 6 10 3 15 -9 13 -12 11 -12 -6z"/>
<path d="M17065 5721 c-3 -5 -2 -12 3 -15 5 -3 9 1 9 9 0 17 -3 19 -12 6z"/>
<path d="M17189 5716 c5 -6 7 -19 5 -29 -1 -11 0 -16 4 -12 12 12 9 52 -4 52
-9 0 -10 -5 -5 -11z"/>
<path d="M17044 5685 c1 -14 8 -30 16 -37 12 -11 12 -10 3 2 -6 8 -9 23 -8 32
2 10 0 20 -4 23 -4 2 -7 -7 -7 -20z"/>
<path d="M17246 5700 c6 -8 10 -28 9 -43 -1 -15 2 -30 7 -33 4 -3 5 -10 2 -16
-4 -7 -2 -8 5 -4 7 5 9 12 3 19 -5 7 -8 24 -7 40 1 15 -5 33 -14 40 -14 10
-14 10 -5 -3z"/>
<path d="M17144 5686 c1 -8 5 -18 8 -22 4 -3 5 1 4 10 -1 8 -5 18 -8 22 -4 3
-5 -1 -4 -10z"/>
<path d="M16943 5675 c0 -8 4 -12 9 -9 5 3 6 10 3 15 -9 13 -12 11 -12 -6z"/>
<path d="M17073 5675 c0 -8 4 -12 9 -9 5 3 6 10 3 15 -9 13 -12 11 -12 -6z"/>
<path d="M16915 5671 c-3 -5 -2 -12 3 -15 5 -3 9 1 9 9 0 17 -3 19 -12 6z"/>
<path d="M16890 5656 c0 -2 8 -10 18 -17 15 -13 16 -12 3 4 -13 16 -21 21 -21
13z"/>
<path d="M17013 5648 c-4 -7 -8 -24 -8 -38 0 -14 -4 -30 -8 -36 -4 -7 1 -18
11 -25 15 -13 16 -12 4 3 -7 9 -9 19 -4 22 5 3 8 18 7 33 -1 15 2 34 8 41 5 6
7 12 4 12 -3 0 -9 -6 -14 -12z"/>
<path d="M17085 5651 c-3 -5 -2 -12 3 -15 5 -3 9 1 9 9 0 17 -3 19 -12 6z"/>
<path d="M17134 5636 c1 -14 4 -28 7 -31 3 -3 5 6 5 19 -1 14 -4 28 -7 31 -3
3 -5 -6 -5 -19z"/>
<path d="M17194 5652 c3 -6 2 -14 -4 -17 -7 -4 -7 -11 -2 -18 5 -7 8 -24 7
-39 -1 -15 1 -25 5 -23 9 5 7 52 -3 61 -4 4 -2 13 4 20 7 8 6 14 -2 20 -7 4
-9 3 -5 -4z"/>
<path d="M16939 5648 c-4 -12 -5 -57 0 -53 6 6 10 55 4 55 -1 0 -3 -1 -4 -2z"/>
<path d="M17288 5636 c4 -6 7 -14 7 -18 0 -19 11 -14 11 6 0 12 -6 23 -13 23
-6 0 -9 -5 -5 -11z"/>
<path d="M16884 5617 c1 -12 5 -27 9 -33 3 -6 3 -14 0 -18 -14 -13 -10 -56 6
-69 13 -10 14 -10 5 3 -12 17 -12 49 -1 67 4 6 3 14 -2 18 -5 3 -8 14 -6 25 2
11 0 22 -4 24 -4 3 -7 -5 -7 -17z"/>
<path d="M17035 5631 c-3 -5 -2 -12 3 -15 5 -3 9 1 9 9 0 17 -3 19 -12 6z"/>
<path d="M17061 5623 c1 -4 0 -10 -1 -13 -6 -16 -7 -41 -2 -35 4 4 7 10 7 13
0 4 4 12 8 19 4 6 3 15 -3 18 -6 4 -10 3 -9 -2z"/>
<path d="M17125 5525 c0 -41 2 -71 5 -69 7 7 7 135 0 139 -3 2 -5 -30 -5 -70z"/>
<path d="M16949 5588 c-6 -20 -6 -39 0 -42 4 -3 7 6 7 20 0 20 -4 32 -7 22z"/>
<path d="M17263 5575 c0 -8 4 -12 9 -9 5 3 6 10 3 15 -9 13 -12 11 -12 -6z"/>
<path d="M17069 5563 c-13 -16 -12 -17 4 -4 9 7 17 15 17 17 0 8 -8 3 -21 -13z"/>
<path d="M17354 5545 c0 -19 3 -32 5 -29 8 7 9 54 2 59 -4 2 -7 -12 -7 -30z"/>
<path d="M17035 5551 c-3 -5 -2 -12 3 -15 5 -3 9 1 9 9 0 17 -3 19 -12 6z"/>
<path d="M17235 5551 c-3 -5 -2 -12 3 -15 5 -3 9 1 9 9 0 17 -3 19 -12 6z"/>
<path d="M17325 5551 c-3 -5 -2 -12 3 -15 5 -3 9 1 9 9 0 17 -3 19 -12 6z"/>
<path d="M17064 5528 c1 -7 4 -17 7 -23 4 -5 5 -18 4 -28 -2 -9 0 -15 5 -12 7
4 7 34 0 43 -2 1 -3 6 -4 11 0 5 -4 12 -8 16 -3 4 -6 1 -4 -7z"/>
<path d="M17095 5531 c-3 -5 -2 -12 3 -15 5 -3 9 1 9 9 0 17 -3 19 -12 6z"/>
<path d="M17195 5485 c0 -30 2 -52 5 -49 7 7 7 94 0 99 -3 2 -5 -21 -5 -50z"/>
<path d="M17303 5525 c0 -8 4 -12 9 -9 5 3 6 10 3 15 -9 13 -12 11 -12 -6z"/>
<path d="M16949 5528 c-4 -12 -5 -57 0 -53 6 6 10 55 4 55 -1 0 -3 -1 -4 -2z"/>
<path d="M17013 5515 c0 -8 4 -12 9 -9 5 3 6 10 3 15 -9 13 -12 11 -12 -6z"/>
<path d="M17329 5515 c-1 -3 -3 -9 -4 -15 -1 -5 -4 -11 -5 -12 -7 -8 -5 -60 2
-64 5 -3 3 -13 -4 -22 -12 -15 -11 -16 5 -3 10 8 14 18 9 25 -7 9 -9 51 -2 59
4 5 8 37 4 37 -2 0 -5 -2 -5 -5z"/>
<path d="M16703 5495 c0 -8 4 -12 9 -9 5 3 6 10 3 15 -9 13 -12 11 -12 -6z"/>
<path d="M16651 5486 c-9 -11 -9 -16 1 -22 7 -4 10 -4 6 1 -4 4 -3 14 3 22 6
7 9 13 6 13 -2 0 -10 -6 -16 -14z"/>
<path d="M16770 5495 c0 -2 6 -8 13 -14 10 -8 14 -7 14 2 0 8 -6 14 -14 14 -7
0 -13 -1 -13 -2z"/>
<path d="M16873 5485 c0 -8 4 -12 9 -9 5 3 6 10 3 15 -9 13 -12 11 -12 -6z"/>
<path d="M17025 5491 c-3 -5 -2 -12 3 -15 5 -3 9 1 9 9 0 17 -3 19 -12 6z"/>
<path d="M17261 5483 c1 -4 0 -10 -1 -13 -6 -15 -6 -59 1 -55 4 3 6 13 4 23
-1 9 2 22 7 29 6 7 5 14 -2 18 -6 4 -10 3 -9 -2z"/>
<path d="M17349 5475 c-5 -18 -4 -31 1 -40 8 -13 7 -27 -5 -45 -7 -13 -6 -13
7 -2 16 13 18 28 7 47 -4 6 -5 18 -4 28 3 15 -3 26 -6 12z"/>
<path d="M17223 5455 c0 -8 4 -12 9 -9 5 3 6 10 3 15 -9 13 -12 11 -12 -6z"/>
<path d="M17394 5456 c1 -8 5 -18 8 -22 4 -3 5 1 4 10 -1 8 -5 18 -8 22 -4 3
-5 -1 -4 -10z"/>
<path d="M17285 5451 c-3 -5 -2 -12 3 -15 5 -3 9 1 9 9 0 17 -3 19 -12 6z"/>
<path d="M17383 5415 c0 -8 4 -12 9 -9 5 3 6 10 3 15 -9 13 -12 11 -12 -6z"/>
<path d="M17395 5391 c-3 -5 -2 -12 3 -15 5 -3 9 1 9 9 0 17 -3 19 -12 6z"/>
<path d="M17480 5355 c0 -2 6 -8 13 -14 10 -8 14 -7 14 2 0 8 -6 14 -14 14 -7
0 -13 -1 -13 -2z"/>
<path d="M17534 5296 c1 -8 5 -18 8 -22 4 -3 5 1 4 10 -1 8 -5 18 -8 22 -4 3
-5 -1 -4 -10z"/>
<path d="M11083 5083 c0 -9 4 -10 14 -2 7 6 13 12 13 14 0 1 -6 2 -13 2 -8 0
-14 -6 -14 -14z"/>
<path d="M11428 5086 c4 -6 7 -14 7 -18 0 -19 11 -14 11 6 0 12 -6 23 -13 23
-6 0 -9 -5 -5 -11z"/>
<path d="M11109 5078 c-5 -18 -6 -38 -1 -34 7 8 12 36 6 36 -2 0 -4 -1 -5 -2z"/>
<path d="M11075 5051 c-3 -5 -1 -12 4 -15 10 -7 9 -25 -2 -43 -4 -6 -3 -15 3
-18 6 -4 10 -3 9 2 -1 4 0 10 1 13 7 19 7 41 -1 46 -5 3 -7 10 -4 15 4 5 4 9
1 9 -3 0 -7 -4 -11 -9z"/>
<path d="M11234 5034 c0 -20 11 -25 11 -6 0 4 3 12 7 18 4 6 1 11 -5 11 -7 0
-13 -11 -13 -23z"/>
<path d="M11275 5052 c3 -3 0 -11 -6 -18 -7 -9 -6 -14 3 -20 7 -4 10 -3 5 1
-4 5 0 16 8 25 13 15 13 17 0 17 -8 0 -13 -3 -10 -5z"/>
<path d="M11314 5034 c0 -20 11 -25 11 -6 0 4 3 12 7 18 4 6 1 11 -5 11 -7 0
-13 -11 -13 -23z"/>
<path d="M11410 5056 c0 -2 8 -10 18 -17 15 -13 16 -12 3 4 -13 16 -21 21 -21
13z"/>
<path d="M11023 5038 c-12 -20 -12 -37 -1 -44 5 -4 3 -13 -7 -24 -11 -12 -13
-20 -5 -25 5 -3 7 -11 4 -17 -4 -7 -2 -8 5 -4 9 6 9 11 1 21 -7 9 -6 16 5 25
8 7 12 17 8 24 -11 16 -11 29 0 44 5 6 7 12 4 12 -3 0 -9 -6 -14 -12z"/>
<path d="M11459 5048 c-5 -18 -6 -38 -1 -34 7 8 12 36 6 36 -2 0 -4 -1 -5 -2z"/>
<path d="M11404 5028 c1 -7 5 -18 9 -24 3 -6 3 -14 0 -18 -14 -13 -10 -56 6
-69 13 -10 14 -10 5 3 -12 17 -12 49 -1 67 4 6 3 14 -3 18 -6 4 -8 10 -5 15 3
5 1 11 -4 14 -5 4 -8 0 -7 -6z"/>
<path d="M11195 4974 c0 -24 7 -49 14 -56 12 -11 12 -10 5 2 -11 19 -13 72 -2
86 4 6 2 11 -5 11 -9 0 -13 -15 -12 -43z"/>
<path d="M11329 5003 c-13 -16 -12 -17 4 -4 16 13 21 21 13 21 -2 0 -10 -8
-17 -17z"/>
<path d="M11293 4995 c0 -8 4 -12 9 -9 5 3 6 10 3 15 -9 13 -12 11 -12 -6z"/>
<path d="M11469 5008 c-6 -20 -6 -39 0 -42 4 -3 7 6 7 20 0 20 -4 32 -7 22z"/>
<path d="M10993 4985 c0 -8 4 -12 9 -9 5 3 6 10 3 15 -9 13 -12 11 -12 -6z"/>
<path d="M11125 4991 c-3 -5 -2 -12 3 -15 5 -3 9 1 9 9 0 17 -3 19 -12 6z"/>
<path d="M11265 4991 c-3 -5 -2 -12 3 -15 5 -3 9 1 9 9 0 17 -3 19 -12 6z"/>
<path d="M11343 4988 c-11 -18 -12 -58 -1 -64 5 -3 3 -13 -4 -22 -12 -15 -11
-16 5 -3 10 8 14 18 9 25 -10 14 -9 47 1 64 5 6 6 12 3 12 -3 0 -8 -6 -13 -12z"/>
<path d="M11533 4985 c0 -8 4 -12 9 -9 5 3 6 10 3 15 -9 13 -12 11 -12 -6z"/>
<path d="M11243 4965 c0 -8 4 -12 9 -9 5 3 6 10 3 15 -9 13 -12 11 -12 -6z"/>
<path d="M11555 4971 c-3 -5 -1 -13 5 -16 8 -5 7 -12 -2 -23 -12 -15 -11 -16
5 -3 12 9 14 17 7 26 -5 6 -7 15 -3 18 3 4 4 7 0 7 -3 0 -8 -4 -12 -9z"/>
<path d="M10973 4955 c0 -8 4 -12 9 -9 5 3 6 10 3 15 -9 13 -12 11 -12 -6z"/>
<path d="M11035 4961 c-3 -5 -2 -12 3 -15 5 -3 9 1 9 9 0 17 -3 19 -12 6z"/>
<path d="M11104 4945 c0 -13 3 -22 7 -19 8 4 6 30 -2 38 -3 3 -5 -5 -5 -19z"/>
<path d="M11265 4951 c-3 -5 -2 -12 3 -15 5 -3 9 1 9 9 0 17 -3 19 -12 6z"/>
<path d="M11533 4945 c0 -8 4 -12 9 -9 5 3 6 10 3 15 -9 13 -12 11 -12 -6z"/>
<path d="M11469 4948 c-5 -18 -6 -38 -1 -34 7 8 12 36 6 36 -2 0 -4 -1 -5 -2z"/>
<path d="M11039 4928 c-4 -12 -5 -57 0 -53 6 6 10 55 4 55 -1 0 -3 -1 -4 -2z"/>
<path d="M11293 4915 c0 -8 4 -12 9 -9 5 3 6 10 3 15 -9 13 -12 11 -12 -6z"/>
<path d="M10945 4911 c-3 -5 -2 -12 3 -15 5 -3 9 1 9 9 0 17 -3 19 -12 6z"/>
<path d="M11183 4905 c0 -8 4 -12 9 -9 5 3 6 10 3 15 -9 13 -12 11 -12 -6z"/>
<path d="M11233 4905 c0 -8 4 -12 9 -9 5 3 6 10 3 15 -9 13 -12 11 -12 -6z"/>
<path d="M11265 4911 c-3 -5 -2 -12 3 -15 5 -3 9 1 9 9 0 17 -3 19 -12 6z"/>
<path d="M11393 4905 c0 -8 4 -12 9 -9 5 3 6 10 3 15 -9 13 -12 11 -12 -6z"/>
<path d="M11505 4911 c-3 -5 -2 -12 3 -15 5 -3 9 1 9 9 0 17 -3 19 -12 6z"/>
<path d="M11553 4895 c0 -8 4 -12 9 -9 5 3 6 10 3 15 -9 13 -12 11 -12 -6z"/>
<path d="M11585 4901 c-3 -5 -2 -12 3 -15 5 -3 9 1 9 9 0 17 -3 19 -12 6z"/>
<path d="M11463 4885 c0 -8 4 -12 9 -9 5 3 6 10 3 15 -9 13 -12 11 -12 -6z"/>
<path d="M10909 4868 c-5 -18 -6 -38 -1 -34 7 8 12 36 6 36 -2 0 -4 -1 -5 -2z"/>
<path d="M11585 4861 c-3 -5 -2 -12 3 -15 5 -3 9 1 9 9 0 17 -3 19 -12 6z"/>
<path d="M11640 4836 c0 -2 8 -10 18 -17 15 -13 16 -12 3 4 -13 16 -21 21 -21
13z"/>
<path d="M11455 3458 c-105 -12 -291 -54 -380 -85 -171 -62 -314 -153 -432
-276 -174 -181 -241 -361 -230 -616 10 -238 81 -396 257 -570 178 -176 439
-311 923 -477 422 -144 554 -243 575 -428 29 -247 -132 -398 -438 -410 -222
-9 -412 39 -519 130 -82 71 -137 193 -148 327 l-6 77 -373 0 -374 0 0 -59 c0
-137 48 -316 121 -447 163 -295 459 -491 879 -579 102 -22 162 -28 321 -32
269 -7 437 13 633 79 448 149 678 474 652 923 -14 248 -91 423 -260 590 -181
179 -424 306 -876 458 -234 79 -316 112 -407 165 -97 57 -158 114 -189 178
-24 48 -26 63 -22 132 12 205 168 320 458 338 181 11 344 -39 440 -135 67 -67
110 -172 110 -268 l0 -43 375 0 375 0 0 63 c0 81 -30 224 -65 312 -144 359
-510 604 -977 655 -114 12 -309 11 -423 -2z"/>
<path d="M17875 3459 c-609 -77 -1069 -530 -1200 -1183 -38 -189 -48 -348 -42
-624 6 -267 19 -377 67 -559 109 -418 355 -744 703 -928 93 -50 252 -105 377
-132 122 -26 488 -26 610 0 188 40 351 106 487 198 361 244 579 634 644 1154
19 151 16 582 -5 735 -31 229 -81 399 -168 575 -250 503 -711 780 -1288 774
-63 -1 -146 -5 -185 -10z m419 -639 c225 -75 390 -302 451 -622 39 -206 43
-626 9 -857 -24 -166 -82 -330 -155 -447 -78 -123 -221 -226 -360 -259 -147
-34 -340 -10 -463 59 -60 34 -158 123 -197 181 -71 105 -135 274 -165 440 -15
83 -19 153 -19 415 0 218 4 343 14 405 55 363 214 601 457 686 115 40 305 40
428 -1z"/>
<path d="M570 1735 l0 -1685 375 0 375 0 2 583 3 582 430 6 c380 6 441 9 526
27 262 56 453 150 612 301 126 120 221 285 267 461 31 122 39 342 16 479 -69
410 -338 719 -746 855 -211 71 -188 69 -1067 73 l-793 4 0 -1686z m1483 1070
c92 -19 175 -66 242 -136 99 -104 140 -227 133 -403 -7 -172 -51 -268 -161
-351 -111 -84 -137 -88 -569 -93 l-378 -3 0 500 0 501 333 0 c250 0 349 -4
400 -15z"/>
<path d="M3650 1735 l0 -1685 1145 0 1145 0 -2 303 -3 302 -765 0 -765 0 -3
417 -2 418 652 2 653 3 3 288 c2 268 1 287 -15 288 -10 0 -304 2 -653 2 l-635
2 -3 373 -2 372 770 0 770 0 0 300 0 300 -1145 0 -1145 0 0 -1685z"/>
<path d="M6170 3120 l0 -300 505 0 505 0 0 -1385 0 -1385 373 2 372 3 3 1383
2 1382 510 0 510 0 0 300 0 300 -1390 0 -1390 0 0 -300z"/>
<path d="M13380 1735 l0 -1685 370 0 370 0 2 708 3 707 643 3 642 2 0 -710 0
-710 375 0 375 0 0 1685 0 1685 -375 0 -375 0 -2 -672 -3 -673 -630 -1 c-346
-1 -636 2 -642 5 -10 5 -12 152 -10 674 l2 667 -372 0 -373 0 0 -1685z"/>
<path d="M20010 1735 l0 -1685 373 2 372 3 3 583 2 582 373 0 c447 0 573 13
765 77 425 142 677 445 723 870 37 342 -75 676 -304 901 -165 164 -366 268
-627 325 -91 20 -129 21 -887 24 l-793 4 0 -1686z m1532 1057 c89 -30 180
-100 235 -180 97 -143 119 -359 52 -537 -27 -74 -109 -159 -189 -198 -103 -50
-163 -57 -537 -57 l-343 0 0 501 0 500 358 -3 c339 -3 360 -5 424 -26z"/>
</g>
</svg>
